<svg xmlns="http://www.w3.org/2000/svg" xmlns:xlink="http://www.w3.org/1999/xlink" width="500" zoomAndPan="magnify" viewBox="0 0 375 374.999991" height="500" preserveAspectRatio="xMidYMid meet" version="1.0"><defs><g/></defs><g fill="#3d3b3a" fill-opacity="1"><g transform="translate(92.393236, 245.833617)"><g><path d="M 102.625 -92.375 C 103.28125 -92.320312 103.660156 -92 103.765625 -91.40625 C 103.816406 -90.863281 103.65625 -90.347656 103.28125 -89.859375 C 102.894531 -89.316406 102.328125 -89.046875 101.578125 -89.046875 C 95.390625 -89.484375 88.363281 -89.804688 80.5 -90.015625 C 72.644531 -90.234375 63.945312 -90.375 54.40625 -90.4375 C 54.238281 -89.78125 53.992188 -88.882812 53.671875 -87.75 C 52.804688 -84.820312 51.734375 -81.09375 50.453125 -76.5625 C 49.179688 -72.039062 47.679688 -66.710938 45.953125 -60.578125 C 44.265625 -54.453125 42.648438 -48.460938 41.109375 -42.609375 C 39.566406 -36.753906 38.113281 -31.035156 36.75 -25.453125 C 33.988281 -14.285156 32.769531 -7.425781 33.09375 -4.875 C 33.632812 -4.601562 33.851562 -4.222656 33.75 -3.734375 C 33.632812 -3.191406 33.414062 -2.757812 33.09375 -2.4375 C 32.664062 -2.007812 32.148438 -1.796875 31.546875 -1.796875 C 31.066406 -1.796875 30.609375 -2.007812 30.171875 -2.4375 C 29.304688 -4.5 30.035156 -10.597656 32.359375 -20.734375 C 33.503906 -25.828125 34.796875 -31.164062 36.234375 -36.75 C 37.671875 -42.34375 39.226562 -48.171875 40.90625 -54.234375 C 42.582031 -60.367188 44.125 -65.957031 45.53125 -71 C 46.945312 -76.039062 48.25 -80.566406 49.4375 -84.578125 C 50.09375 -86.960938 50.664062 -88.914062 51.15625 -90.4375 C 50.070312 -90.4375 48.375 -90.421875 46.0625 -90.390625 C 43.757812 -90.359375 40.875 -90.316406 37.40625 -90.265625 C 30.46875 -90.160156 23.582031 -89.835938 16.75 -89.296875 C 9.757812 -88.691406 5.285156 -87.847656 3.328125 -86.765625 C 3.117188 -86.117188 2.710938 -85.710938 2.109375 -85.546875 C 1.566406 -85.328125 1.082031 -85.351562 0.65625 -85.625 C 0.21875 -85.894531 0.0507812 -86.359375 0.15625 -87.015625 C 0.269531 -87.609375 0.785156 -88.285156 1.703125 -89.046875 C 4.421875 -90.785156 10.578125 -92.03125 20.171875 -92.78125 C 24.941406 -93.113281 29.96875 -93.359375 35.25 -93.515625 C 40.539062 -93.679688 46.140625 -93.738281 52.046875 -93.6875 C 52.148438 -93.957031 52.21875 -94.195312 52.25 -94.40625 C 52.28125 -94.625 52.320312 -94.816406 52.375 -94.984375 C 52.59375 -95.691406 53.023438 -96.179688 53.671875 -96.453125 C 54.210938 -96.660156 54.726562 -96.660156 55.21875 -96.453125 C 55.65625 -96.234375 55.816406 -95.742188 55.703125 -94.984375 L 55.296875 -93.6875 C 65.972656 -93.625 75.648438 -93.457031 84.328125 -93.1875 C 88.671875 -93.03125 92.375 -92.882812 95.4375 -92.75 C 98.5 -92.613281 100.894531 -92.488281 102.625 -92.375 Z M 102.625 -92.375 "/></g></g></g><g fill="#3d3b3a" fill-opacity="1"><g transform="translate(143.381147, 245.833617)"><g><path d="M 9.109375 -36.921875 C 9.429688 -38.171875 9.515625 -39.117188 9.359375 -39.765625 C 9.085938 -40.359375 8.785156 -40.65625 8.453125 -40.65625 C 8.078125 -40.65625 7.753906 -40.359375 7.484375 -39.765625 C 7.265625 -39.328125 7.289062 -38.8125 7.5625 -38.21875 C 7.78125 -37.675781 8.296875 -37.242188 9.109375 -36.921875 Z M 25.296875 -40.328125 C 25.941406 -40.816406 26.507812 -40.953125 27 -40.734375 C 27.488281 -40.523438 27.757812 -40.148438 27.8125 -39.609375 C 27.863281 -39.117188 27.59375 -38.578125 27 -37.984375 C 24.34375 -35.972656 21.578125 -34.613281 18.703125 -33.90625 C 15.722656 -33.207031 13.015625 -32.960938 10.578125 -33.171875 C 8.515625 -30.628906 6.265625 -29.359375 3.828125 -29.359375 C 1.765625 -29.359375 0.300781 -30.28125 -0.5625 -32.125 C -1.4375 -33.914062 -1.164062 -36.515625 0.25 -39.921875 C 0.625 -40.628906 1.109375 -41.066406 1.703125 -41.234375 C 2.304688 -41.335938 2.796875 -41.226562 3.171875 -40.90625 C 3.546875 -40.632812 3.597656 -40.09375 3.328125 -39.28125 C 2.578125 -37.707031 2.253906 -36.21875 2.359375 -34.8125 C 2.460938 -33.394531 3.25 -32.6875 4.71875 -32.6875 C 5.695312 -32.6875 6.5625 -33.066406 7.3125 -33.828125 C 5.632812 -34.421875 4.609375 -35.316406 4.234375 -36.515625 C 3.796875 -37.703125 3.820312 -38.894531 4.3125 -40.09375 C 5.125 -42.15625 6.34375 -43.375 7.96875 -43.75 C 9.644531 -44.1875 11 -43.804688 12.03125 -42.609375 C 13.0625 -41.472656 13.117188 -39.382812 12.203125 -36.34375 C 16.753906 -36.070312 21.117188 -37.398438 25.296875 -40.328125 Z M 25.296875 -40.328125 "/></g></g></g><g fill="#3d3b3a" fill-opacity="1"><g transform="translate(168.6718, 245.833617)"><g><path d="M 86.03125 -66.765625 C 94.007812 -65.296875 99 -61.851562 101 -56.4375 C 102.945312 -51.019531 101.320312 -44.8125 96.125 -37.8125 C 90.863281 -30.820312 81.398438 -24.179688 67.734375 -17.890625 C 53.585938 -11.929688 39.816406 -7.566406 26.421875 -4.796875 C 12.984375 -2.035156 4.5 -1.601562 0.96875 -3.5 C 0.488281 -3.875 0.21875 -4.304688 0.15625 -4.796875 C 0.0507812 -5.285156 0.0507812 -5.664062 0.15625 -5.9375 C 0.425781 -6.695312 0.804688 -7.1875 1.296875 -7.40625 C 1.898438 -7.675781 2.414062 -7.726562 2.84375 -7.5625 C 3.332031 -7.289062 3.550781 -6.859375 3.5 -6.265625 C 5.882812 -4.910156 13.5 -5.503906 26.34375 -8.046875 C 39.144531 -10.597656 52.703125 -14.851562 67.015625 -20.8125 C 79.484375 -26.507812 88.128906 -32.421875 92.953125 -38.546875 C 97.773438 -44.671875 99.375 -50.035156 97.75 -54.640625 C 96.070312 -59.253906 91.734375 -62.210938 84.734375 -63.515625 C 78.335938 -64.273438 72.023438 -64.164062 65.796875 -63.1875 C 62.585938 -62.644531 59.738281 -62.128906 57.25 -61.640625 C 54.757812 -61.148438 52.617188 -60.660156 50.828125 -60.171875 C 50.285156 -60.066406 49.796875 -59.957031 49.359375 -59.84375 C 48.929688 -59.738281 48.582031 -59.660156 48.3125 -59.609375 L 48.21875 -59.609375 C 47.675781 -57.765625 47.175781 -56 46.71875 -54.3125 C 46.257812 -52.632812 45.8125 -51.039062 45.375 -49.53125 C 45.320312 -49.257812 45.226562 -48.921875 45.09375 -48.515625 C 44.957031 -48.109375 44.835938 -47.660156 44.734375 -47.171875 C 44.296875 -45.753906 43.832031 -44.164062 43.34375 -42.40625 C 42.851562 -40.644531 42.3125 -38.707031 41.71875 -36.59375 C 41.175781 -34.476562 40.671875 -32.457031 40.203125 -30.53125 C 39.742188 -28.613281 39.328125 -26.785156 38.953125 -25.046875 C 38.242188 -21.578125 38.242188 -19.84375 38.953125 -19.84375 C 39.765625 -19.84375 40.195312 -19.570312 40.25 -19.03125 C 40.300781 -18.488281 40.140625 -17.945312 39.765625 -17.40625 C 39.390625 -16.863281 38.847656 -16.59375 38.140625 -16.59375 C 36.347656 -16.59375 35.375 -17.648438 35.21875 -19.765625 C 35.050781 -21.878906 35.484375 -24.96875 36.515625 -29.03125 C 37.003906 -31.09375 37.585938 -33.394531 38.265625 -35.9375 C 38.941406 -38.488281 39.710938 -41.253906 40.578125 -44.234375 C 40.847656 -45.109375 41.101562 -45.976562 41.34375 -46.84375 C 41.59375 -47.707031 41.828125 -48.601562 42.046875 -49.53125 C 43.128906 -53.375 44.347656 -57.707031 45.703125 -62.53125 C 47.054688 -67.363281 48.492188 -72.648438 50.015625 -78.390625 C 50.234375 -79.097656 50.664062 -79.585938 51.3125 -79.859375 C 51.851562 -80.078125 52.367188 -80.078125 52.859375 -79.859375 C 53.296875 -79.640625 53.457031 -79.148438 53.34375 -78.390625 C 52.582031 -75.578125 51.847656 -72.894531 51.140625 -70.34375 C 50.441406 -67.789062 49.769531 -65.351562 49.125 -63.03125 C 56.382812 -64.976562 62.644531 -67.796875 67.90625 -71.484375 C 73.101562 -75.171875 76.679688 -78.828125 78.640625 -82.453125 C 80.585938 -86.085938 80.425781 -88.882812 78.15625 -90.84375 C 75.875 -92.789062 70.9375 -93.0625 63.34375 -91.65625 C 59.875 -90.894531 56.484375 -89.90625 53.171875 -88.6875 C 49.867188 -87.46875 46.644531 -86.070312 43.5 -84.5 C 40.363281 -82.925781 37.492188 -81.320312 34.890625 -79.6875 C 32.285156 -78.0625 29.953125 -76.460938 27.890625 -74.890625 C 25.828125 -73.316406 24.238281 -71.921875 23.125 -70.703125 C 22.019531 -69.484375 21.359375 -68.492188 21.140625 -67.734375 C 21.140625 -67.578125 21.25 -67.472656 21.46875 -67.421875 C 21.789062 -67.304688 22.035156 -67.25 22.203125 -67.25 C 22.304688 -67.195312 22.410156 -67.171875 22.515625 -67.171875 C 22.628906 -67.171875 22.710938 -67.171875 22.765625 -67.171875 C 23.523438 -67.171875 23.929688 -66.898438 23.984375 -66.359375 C 24.097656 -65.765625 23.960938 -65.222656 23.578125 -64.734375 C 23.203125 -64.191406 22.632812 -63.921875 21.875 -63.921875 C 20.519531 -63.921875 19.546875 -64.132812 18.953125 -64.5625 C 18.296875 -65 17.941406 -65.488281 17.890625 -66.03125 C 17.722656 -66.519531 17.695312 -66.953125 17.8125 -67.328125 C 19 -71.398438 24.285156 -76.414062 33.671875 -82.375 C 42.992188 -88.226562 52.941406 -92.378906 63.515625 -94.828125 C 73.054688 -96.554688 79.097656 -95.929688 81.640625 -92.953125 C 84.191406 -89.910156 83.976562 -85.84375 81 -80.75 C 77.957031 -75.601562 72.804688 -70.78125 65.546875 -66.28125 C 73.679688 -67.519531 80.507812 -67.679688 86.03125 -66.765625 Z M 86.03125 -66.765625 "/></g></g><g transform="translate(272.599318, 245.833617)"><g><path d="M 7.5625 -40.015625 C 6.375 -40.285156 5.15625 -40.039062 3.90625 -39.28125 C 5.632812 -39.382812 6.851562 -39.628906 7.5625 -40.015625 Z M 23.90625 -40.421875 C 24.5625 -40.910156 25.128906 -41.046875 25.609375 -40.828125 C 26.046875 -40.609375 26.289062 -40.203125 26.34375 -39.609375 C 26.34375 -39.003906 26.019531 -38.460938 25.375 -37.984375 C 17.945312 -32.390625 11.003906 -29.59375 4.546875 -29.59375 C 1.734375 -29.59375 -0.210938 -30.21875 -1.296875 -31.46875 C -2.328125 -32.664062 -2.546875 -34.289062 -1.953125 -36.34375 C -1.191406 -38.675781 0.160156 -40.414062 2.109375 -41.5625 C 3.085938 -42.15625 4.0625 -42.597656 5.03125 -42.890625 C 6.007812 -43.191406 6.960938 -43.367188 7.890625 -43.421875 C 9.734375 -43.421875 10.867188 -42.71875 11.296875 -41.3125 C 11.515625 -39.789062 10.703125 -38.460938 8.859375 -37.328125 C 6.859375 -36.191406 4.3125 -35.8125 1.21875 -36.1875 C 1.113281 -35.695312 1.140625 -35.265625 1.296875 -34.890625 C 1.347656 -34.453125 1.675781 -34.015625 2.28125 -33.578125 C 2.875 -33.148438 3.738281 -32.910156 4.875 -32.859375 C 10.1875 -32.472656 16.53125 -34.992188 23.90625 -40.421875 Z M 23.90625 -40.421875 "/></g></g></g><g fill="#3d3b3a" fill-opacity="1"><g transform="translate(112.474852, 139.044132)"><g><path d="M 0.515625 0 L 0.484375 -0.375 L 1.0625 -0.515625 C 1.070312 -0.535156 1.078125 -0.585938 1.078125 -0.671875 C 1.078125 -0.765625 1.078125 -0.90625 1.078125 -1.09375 C 1.085938 -1.289062 1.09375 -1.554688 1.09375 -1.890625 L 1.109375 -3.875 C 1.109375 -4.195312 1.101562 -4.453125 1.09375 -4.640625 C 1.082031 -4.828125 1.078125 -4.96875 1.078125 -5.0625 C 1.078125 -5.15625 1.070312 -5.207031 1.0625 -5.21875 L 0.453125 -5.359375 L 0.484375 -5.734375 L 2.5625 -5.734375 C 3.207031 -5.734375 3.707031 -5.59375 4.0625 -5.3125 C 4.425781 -5.03125 4.609375 -4.617188 4.609375 -4.078125 C 4.609375 -3.710938 4.515625 -3.394531 4.328125 -3.125 C 4.140625 -2.863281 3.890625 -2.660156 3.578125 -2.515625 C 3.265625 -2.367188 2.921875 -2.296875 2.546875 -2.296875 C 2.390625 -2.296875 2.25 -2.300781 2.125 -2.3125 C 2 -2.332031 1.882812 -2.351562 1.78125 -2.375 L 1.78125 -2.90625 C 1.925781 -2.851562 2.050781 -2.816406 2.15625 -2.796875 C 2.269531 -2.785156 2.390625 -2.78125 2.515625 -2.78125 C 2.898438 -2.78125 3.195312 -2.875 3.40625 -3.0625 C 3.625 -3.25 3.734375 -3.546875 3.734375 -3.953125 C 3.734375 -4.421875 3.613281 -4.757812 3.375 -4.96875 C 3.132812 -5.1875 2.832031 -5.296875 2.46875 -5.296875 L 1.9375 -5.296875 C 1.9375 -5.265625 1.9375 -5.175781 1.9375 -5.03125 C 1.9375 -4.894531 1.929688 -4.722656 1.921875 -4.515625 C 1.921875 -4.316406 1.921875 -4.101562 1.921875 -3.875 L 1.9375 -1.890625 C 1.9375 -1.554688 1.9375 -1.296875 1.9375 -1.109375 C 1.9375 -0.921875 1.941406 -0.78125 1.953125 -0.6875 C 1.960938 -0.601562 1.96875 -0.546875 1.96875 -0.515625 L 2.78125 -0.390625 L 2.75 0 Z M 0.515625 0 "/></g></g></g><g fill="#3d3b3a" fill-opacity="1"><g transform="translate(120.492595, 139.044132)"><g><path d="M 4.75 0.046875 C 4.5625 0.0234375 4.394531 0.0078125 4.25 0 C 4.101562 0 3.960938 0 3.828125 0 L 0.484375 0 L 0.453125 -0.375 L 1.0625 -0.515625 C 1.0625 -0.546875 1.0625 -0.617188 1.0625 -0.734375 C 1.070312 -0.847656 1.078125 -1.003906 1.078125 -1.203125 C 1.085938 -1.410156 1.09375 -1.65625 1.09375 -1.9375 L 1.09375 -3.78125 C 1.09375 -4.070312 1.085938 -4.316406 1.078125 -4.515625 C 1.078125 -4.722656 1.070312 -4.882812 1.0625 -5 C 1.0625 -5.125 1.0625 -5.195312 1.0625 -5.21875 L 0.453125 -5.359375 L 0.484375 -5.734375 L 3.609375 -5.734375 C 3.703125 -5.734375 3.800781 -5.734375 3.90625 -5.734375 C 4.007812 -5.734375 4.117188 -5.738281 4.234375 -5.75 C 4.347656 -5.757812 4.46875 -5.765625 4.59375 -5.765625 L 4.78125 -4.484375 L 4.34375 -4.421875 L 4.03125 -5.234375 C 3.976562 -5.242188 3.914062 -5.25 3.84375 -5.25 C 3.78125 -5.257812 3.710938 -5.265625 3.640625 -5.265625 L 2.546875 -5.265625 C 2.421875 -5.265625 2.3125 -5.257812 2.21875 -5.25 C 2.125 -5.25 2.03125 -5.242188 1.9375 -5.234375 C 1.9375 -5.210938 1.929688 -5.140625 1.921875 -5.015625 C 1.921875 -4.890625 1.921875 -4.75 1.921875 -4.59375 C 1.921875 -4.4375 1.921875 -4.28125 1.921875 -4.125 L 1.921875 -1.5 C 1.921875 -1.363281 1.921875 -1.226562 1.921875 -1.09375 C 1.921875 -0.96875 1.921875 -0.851562 1.921875 -0.75 C 1.929688 -0.644531 1.9375 -0.570312 1.9375 -0.53125 C 2.03125 -0.519531 2.125 -0.507812 2.21875 -0.5 C 2.320312 -0.5 2.4375 -0.5 2.5625 -0.5 L 3.5 -0.5 C 3.644531 -0.5 3.765625 -0.5 3.859375 -0.5 C 3.953125 -0.507812 4.023438 -0.515625 4.078125 -0.515625 C 4.128906 -0.523438 4.171875 -0.53125 4.203125 -0.53125 L 4.703125 -1.46875 L 5.140625 -1.375 Z M 3.65625 -2 L 3.546875 -2.671875 C 3.515625 -2.679688 3.457031 -2.6875 3.375 -2.6875 C 3.300781 -2.695312 3.207031 -2.703125 3.09375 -2.703125 L 2.359375 -2.703125 C 2.273438 -2.703125 2.179688 -2.695312 2.078125 -2.6875 C 1.972656 -2.6875 1.867188 -2.679688 1.765625 -2.671875 L 1.765625 -3.21875 C 1.867188 -3.207031 1.972656 -3.195312 2.078125 -3.1875 C 2.179688 -3.1875 2.273438 -3.1875 2.359375 -3.1875 L 3.09375 -3.1875 C 3.207031 -3.1875 3.300781 -3.1875 3.375 -3.1875 C 3.457031 -3.195312 3.515625 -3.207031 3.546875 -3.21875 L 3.65625 -3.890625 L 4.078125 -3.890625 L 4.078125 -2 Z M 3.65625 -2 "/></g></g></g><g fill="#3d3b3a" fill-opacity="1"><g transform="translate(128.920333, 139.044132)"><g><path d="M 0.515625 0 L 0.484375 -0.375 L 1.078125 -0.515625 C 1.078125 -0.566406 1.078125 -0.640625 1.078125 -0.734375 C 1.085938 -0.828125 1.09375 -0.9375 1.09375 -1.0625 C 1.09375 -1.195312 1.09375 -1.335938 1.09375 -1.484375 C 1.101562 -1.640625 1.109375 -1.789062 1.109375 -1.9375 L 1.109375 -3.78125 C 1.109375 -4.082031 1.101562 -4.332031 1.09375 -4.53125 C 1.09375 -4.738281 1.085938 -4.898438 1.078125 -5.015625 C 1.078125 -5.128906 1.070312 -5.195312 1.0625 -5.21875 L 0.453125 -5.359375 L 0.484375 -5.734375 L 2.625 -5.734375 C 3.238281 -5.734375 3.707031 -5.613281 4.03125 -5.375 C 4.351562 -5.132812 4.515625 -4.785156 4.515625 -4.328125 C 4.515625 -4.003906 4.425781 -3.71875 4.25 -3.46875 C 4.070312 -3.21875 3.820312 -3.019531 3.5 -2.875 C 3.1875 -2.738281 2.832031 -2.671875 2.4375 -2.671875 L 1.8125 -2.671875 L 1.8125 -3.109375 L 2.359375 -3.109375 C 2.765625 -3.109375 3.078125 -3.207031 3.296875 -3.40625 C 3.523438 -3.613281 3.640625 -3.894531 3.640625 -4.25 C 3.640625 -4.59375 3.539062 -4.851562 3.34375 -5.03125 C 3.15625 -5.207031 2.878906 -5.296875 2.515625 -5.296875 L 1.9375 -5.296875 C 1.9375 -5.285156 1.929688 -5.257812 1.921875 -5.21875 C 1.921875 -5.1875 1.921875 -5.125 1.921875 -5.03125 C 1.921875 -4.9375 1.921875 -4.800781 1.921875 -4.625 C 1.921875 -4.445312 1.921875 -4.210938 1.921875 -3.921875 L 1.921875 -1.9375 C 1.921875 -1.664062 1.921875 -1.429688 1.921875 -1.234375 C 1.929688 -1.046875 1.941406 -0.894531 1.953125 -0.78125 C 1.960938 -0.664062 1.96875 -0.578125 1.96875 -0.515625 L 2.546875 -0.375 L 2.515625 0 Z M 5.140625 0.09375 C 4.847656 0.09375 4.59375 0.0390625 4.375 -0.0625 C 4.15625 -0.164062 3.941406 -0.34375 3.734375 -0.59375 C 3.523438 -0.851562 3.300781 -1.195312 3.0625 -1.625 L 2.390625 -2.828125 L 3.125 -3 L 4.1875 -1.453125 C 4.363281 -1.179688 4.523438 -0.960938 4.671875 -0.796875 C 4.816406 -0.640625 4.960938 -0.519531 5.109375 -0.4375 C 5.253906 -0.363281 5.410156 -0.3125 5.578125 -0.28125 L 5.5625 0.0625 C 5.5 0.0703125 5.429688 0.078125 5.359375 0.078125 C 5.285156 0.0859375 5.210938 0.09375 5.140625 0.09375 Z M 5.140625 0.09375 "/></g></g></g><g fill="#3d3b3a" fill-opacity="1"><g transform="translate(137.455452, 139.044132)"><g><path d="M 2.203125 0.09375 C 1.910156 0.09375 1.613281 0.0546875 1.3125 -0.015625 C 1.019531 -0.0859375 0.773438 -0.179688 0.578125 -0.296875 L 0.53125 -1.546875 L 0.953125 -1.59375 L 1.21875 -0.71875 C 1.375 -0.613281 1.546875 -0.535156 1.734375 -0.484375 C 1.929688 -0.429688 2.132812 -0.40625 2.34375 -0.40625 C 2.664062 -0.40625 2.921875 -0.484375 3.109375 -0.640625 C 3.304688 -0.796875 3.40625 -1.003906 3.40625 -1.265625 C 3.40625 -1.492188 3.335938 -1.6875 3.203125 -1.84375 C 3.066406 -2 2.890625 -2.128906 2.671875 -2.234375 C 2.453125 -2.347656 2.21875 -2.457031 1.96875 -2.5625 C 1.726562 -2.675781 1.5 -2.800781 1.28125 -2.9375 C 1.070312 -3.082031 0.894531 -3.253906 0.75 -3.453125 C 0.613281 -3.660156 0.546875 -3.921875 0.546875 -4.234375 C 0.546875 -4.546875 0.632812 -4.820312 0.8125 -5.0625 C 0.988281 -5.3125 1.234375 -5.5 1.546875 -5.625 C 1.859375 -5.757812 2.21875 -5.828125 2.625 -5.828125 C 2.789062 -5.828125 2.953125 -5.816406 3.109375 -5.796875 C 3.273438 -5.785156 3.425781 -5.757812 3.5625 -5.71875 C 3.695312 -5.6875 3.820312 -5.648438 3.9375 -5.609375 L 4.015625 -4.390625 L 3.59375 -4.34375 L 3.328125 -5.171875 C 3.117188 -5.296875 2.847656 -5.359375 2.515625 -5.359375 C 2.179688 -5.359375 1.914062 -5.273438 1.71875 -5.109375 C 1.519531 -4.953125 1.421875 -4.742188 1.421875 -4.484375 C 1.421875 -4.242188 1.488281 -4.046875 1.625 -3.890625 C 1.769531 -3.734375 1.953125 -3.59375 2.171875 -3.46875 C 2.390625 -3.351562 2.617188 -3.242188 2.859375 -3.140625 C 3.109375 -3.035156 3.34375 -2.910156 3.5625 -2.765625 C 3.78125 -2.628906 3.957031 -2.460938 4.09375 -2.265625 C 4.238281 -2.066406 4.3125 -1.820312 4.3125 -1.53125 C 4.3125 -1.21875 4.21875 -0.9375 4.03125 -0.6875 C 3.851562 -0.445312 3.601562 -0.253906 3.28125 -0.109375 C 2.96875 0.0234375 2.609375 0.09375 2.203125 0.09375 Z M 2.203125 0.09375 "/></g></g></g><g fill="#3d3b3a" fill-opacity="1"><g transform="translate(145.13153, 139.044132)"><g><path d="M 3.40625 0.09375 C 2.84375 0.09375 2.335938 -0.03125 1.890625 -0.28125 C 1.453125 -0.53125 1.109375 -0.875 0.859375 -1.3125 C 0.617188 -1.757812 0.5 -2.269531 0.5 -2.84375 C 0.5 -3.414062 0.625 -3.925781 0.875 -4.375 C 1.125 -4.820312 1.472656 -5.175781 1.921875 -5.4375 C 2.367188 -5.695312 2.867188 -5.828125 3.421875 -5.828125 C 3.972656 -5.828125 4.457031 -5.703125 4.875 -5.453125 C 5.289062 -5.203125 5.617188 -4.859375 5.859375 -4.421875 C 6.097656 -3.984375 6.21875 -3.476562 6.21875 -2.90625 C 6.21875 -2.46875 6.140625 -2.066406 5.984375 -1.703125 C 5.835938 -1.335938 5.632812 -1.019531 5.375 -0.75 C 5.113281 -0.488281 4.8125 -0.28125 4.46875 -0.125 C 4.132812 0.0195312 3.78125 0.09375 3.40625 0.09375 Z M 3.5 -0.4375 C 3.851562 -0.4375 4.160156 -0.523438 4.421875 -0.703125 C 4.679688 -0.890625 4.878906 -1.148438 5.015625 -1.484375 C 5.148438 -1.828125 5.21875 -2.222656 5.21875 -2.671875 C 5.21875 -3.203125 5.132812 -3.664062 4.96875 -4.0625 C 4.8125 -4.457031 4.59375 -4.765625 4.3125 -4.984375 C 4.03125 -5.210938 3.695312 -5.328125 3.3125 -5.328125 C 2.757812 -5.328125 2.320312 -5.117188 2 -4.703125 C 1.675781 -4.296875 1.515625 -3.738281 1.515625 -3.03125 C 1.515625 -2.519531 1.597656 -2.070312 1.765625 -1.6875 C 1.929688 -1.300781 2.164062 -0.992188 2.46875 -0.765625 C 2.769531 -0.546875 3.113281 -0.4375 3.5 -0.4375 Z M 3.5 -0.4375 "/></g></g></g><g fill="#3d3b3a" fill-opacity="1"><g transform="translate(154.828303, 139.044132)"><g><path d="M 4.9375 -1.390625 L 4.9375 -3.578125 C 4.9375 -3.960938 4.929688 -4.269531 4.921875 -4.5 C 4.921875 -4.738281 4.914062 -4.914062 4.90625 -5.03125 C 4.894531 -5.144531 4.890625 -5.207031 4.890625 -5.21875 L 4.21875 -5.359375 L 4.25 -5.734375 L 6.109375 -5.734375 L 6.140625 -5.359375 L 5.53125 -5.21875 C 5.53125 -5.207031 5.523438 -5.144531 5.515625 -5.03125 C 5.503906 -4.914062 5.492188 -4.738281 5.484375 -4.5 C 5.484375 -4.269531 5.484375 -3.960938 5.484375 -3.578125 L 5.484375 -1.265625 C 5.484375 -1.054688 5.484375 -0.84375 5.484375 -0.625 C 5.484375 -0.40625 5.484375 -0.179688 5.484375 0.046875 L 5.046875 0.046875 L 1.453125 -4.796875 L 1.671875 -4.796875 L 1.671875 -2.171875 C 1.671875 -1.785156 1.671875 -1.472656 1.671875 -1.234375 C 1.679688 -1.003906 1.691406 -0.832031 1.703125 -0.71875 C 1.710938 -0.601562 1.722656 -0.535156 1.734375 -0.515625 L 2.390625 -0.375 L 2.359375 0 L 0.484375 0 L 0.453125 -0.375 L 1.0625 -0.515625 C 1.070312 -0.535156 1.078125 -0.597656 1.078125 -0.703125 C 1.085938 -0.816406 1.09375 -0.992188 1.09375 -1.234375 C 1.101562 -1.472656 1.109375 -1.785156 1.109375 -2.171875 L 1.109375 -3.84375 C 1.109375 -4.132812 1.101562 -4.375 1.09375 -4.5625 C 1.09375 -4.757812 1.085938 -4.910156 1.078125 -5.015625 C 1.078125 -5.117188 1.070312 -5.1875 1.0625 -5.21875 L 0.453125 -5.359375 L 0.484375 -5.734375 L 1.828125 -5.734375 L 5.109375 -1.390625 Z M 4.9375 -1.390625 "/></g></g></g><g fill="#3d3b3a" fill-opacity="1"><g transform="translate(164.407937, 139.044132)"><g><path d="M 0.03125 0 L 0.015625 -0.375 L 0.484375 -0.515625 L 2.5 -5.5625 L 3.0625 -5.90625 L 5.203125 -0.515625 L 5.6875 -0.375 L 5.65625 0 L 3.6875 0 L 3.65625 -0.375 L 4.265625 -0.515625 L 3.6875 -1.953125 L 3.578125 -2.25 L 2.515625 -4.90625 L 2.734375 -5.046875 L 1.71875 -2.25 L 1.609375 -1.96875 L 1.09375 -0.515625 L 1.6875 -0.375 L 1.671875 0 Z M 1.390625 -1.8125 L 1.390625 -2.328125 C 1.515625 -2.316406 1.6875 -2.304688 1.90625 -2.296875 C 2.125 -2.296875 2.390625 -2.296875 2.703125 -2.296875 C 3.003906 -2.296875 3.265625 -2.296875 3.484375 -2.296875 C 3.703125 -2.304688 3.867188 -2.316406 3.984375 -2.328125 L 3.984375 -1.8125 C 3.765625 -1.8125 3.546875 -1.8125 3.328125 -1.8125 C 3.109375 -1.820312 2.898438 -1.828125 2.703125 -1.828125 C 2.503906 -1.828125 2.296875 -1.820312 2.078125 -1.8125 C 1.867188 -1.8125 1.640625 -1.8125 1.390625 -1.8125 Z M 1.390625 -1.8125 "/></g></g></g><g fill="#3d3b3a" fill-opacity="1"><g transform="translate(173.089482, 139.044132)"><g><path d="M 4.5625 0.046875 C 4.46875 0.0351562 4.363281 0.0234375 4.25 0.015625 C 4.132812 0.015625 4.019531 0.0078125 3.90625 0 C 3.800781 0 3.703125 0 3.609375 0 L 0.484375 0 L 0.46875 -0.375 L 1.0625 -0.515625 C 1.070312 -0.546875 1.078125 -0.617188 1.078125 -0.734375 C 1.085938 -0.847656 1.09375 -1.007812 1.09375 -1.21875 C 1.101562 -1.425781 1.109375 -1.664062 1.109375 -1.9375 L 1.109375 -3.78125 C 1.109375 -4.070312 1.109375 -4.316406 1.109375 -4.515625 C 1.109375 -4.722656 1.101562 -4.882812 1.09375 -5 C 1.082031 -5.113281 1.070312 -5.1875 1.0625 -5.21875 L 0.46875 -5.359375 L 0.484375 -5.734375 L 2.78125 -5.734375 L 2.8125 -5.34375 L 2 -5.21875 C 1.988281 -5.195312 1.976562 -5.128906 1.96875 -5.015625 C 1.96875 -4.910156 1.960938 -4.753906 1.953125 -4.546875 C 1.941406 -4.347656 1.9375 -4.09375 1.9375 -3.78125 L 1.9375 -1.9375 C 1.9375 -1.601562 1.941406 -1.3125 1.953125 -1.0625 C 1.960938 -0.8125 1.96875 -0.648438 1.96875 -0.578125 C 2.0625 -0.566406 2.15625 -0.554688 2.25 -0.546875 C 2.34375 -0.546875 2.457031 -0.546875 2.59375 -0.546875 L 3.328125 -0.546875 C 3.472656 -0.546875 3.597656 -0.546875 3.703125 -0.546875 C 3.804688 -0.554688 3.910156 -0.570312 4.015625 -0.59375 L 4.515625 -1.546875 L 4.96875 -1.453125 Z M 4.5625 0.046875 "/></g></g></g><g fill="#3d3b3a" fill-opacity="1"><g transform="translate(181.077938, 139.044132)"><g/></g></g><g fill="#3d3b3a" fill-opacity="1"><g transform="translate(185.952377, 139.044132)"><g><path d="M 3.65625 0.09375 C 3.070312 0.09375 2.539062 -0.015625 2.0625 -0.234375 C 1.582031 -0.453125 1.203125 -0.773438 0.921875 -1.203125 C 0.640625 -1.640625 0.5 -2.175781 0.5 -2.8125 C 0.5 -3.21875 0.570312 -3.601562 0.71875 -3.96875 C 0.863281 -4.332031 1.070312 -4.65625 1.34375 -4.9375 C 1.625 -5.21875 1.960938 -5.4375 2.359375 -5.59375 C 2.765625 -5.75 3.222656 -5.828125 3.734375 -5.828125 C 4.015625 -5.828125 4.304688 -5.800781 4.609375 -5.75 C 4.910156 -5.695312 5.171875 -5.617188 5.390625 -5.515625 L 5.453125 -4.234375 L 5.015625 -4.203125 L 4.734375 -5.0625 C 4.609375 -5.15625 4.441406 -5.222656 4.234375 -5.265625 C 4.023438 -5.304688 3.832031 -5.328125 3.65625 -5.328125 C 3.15625 -5.328125 2.75 -5.21875 2.4375 -5 C 2.125 -4.789062 1.890625 -4.507812 1.734375 -4.15625 C 1.585938 -3.8125 1.515625 -3.425781 1.515625 -3 C 1.515625 -2.445312 1.613281 -1.972656 1.8125 -1.578125 C 2.007812 -1.191406 2.273438 -0.898438 2.609375 -0.703125 C 2.953125 -0.515625 3.335938 -0.421875 3.765625 -0.421875 C 3.941406 -0.421875 4.140625 -0.445312 4.359375 -0.5 C 4.585938 -0.550781 4.789062 -0.640625 4.96875 -0.765625 L 4.734375 -0.21875 L 4.734375 -1.25 C 4.734375 -1.46875 4.726562 -1.65625 4.71875 -1.8125 C 4.71875 -1.976562 4.710938 -2.101562 4.703125 -2.1875 L 4.03125 -2.296875 L 4.046875 -2.6875 L 5.953125 -2.6875 L 5.984375 -2.3125 L 5.546875 -2.203125 C 5.546875 -2.171875 5.546875 -2.09375 5.546875 -1.96875 C 5.546875 -1.84375 5.546875 -1.691406 5.546875 -1.515625 C 5.546875 -1.285156 5.546875 -1.09375 5.546875 -0.9375 C 5.554688 -0.78125 5.566406 -0.617188 5.578125 -0.453125 C 5.328125 -0.285156 5.019531 -0.148438 4.65625 -0.046875 C 4.300781 0.046875 3.96875 0.09375 3.65625 0.09375 Z M 3.65625 0.09375 "/></g></g></g><g fill="#3d3b3a" fill-opacity="1"><g transform="translate(195.278201, 139.044132)"><g><path d="M 4.8125 -5.21875 L 2.796875 -2.125 L 3.046875 -2.796875 L 3.046875 -1.859375 C 3.046875 -1.617188 3.046875 -1.414062 3.046875 -1.25 C 3.054688 -1.082031 3.0625 -0.945312 3.0625 -0.84375 C 3.0625 -0.738281 3.066406 -0.660156 3.078125 -0.609375 C 3.085938 -0.554688 3.09375 -0.523438 3.09375 -0.515625 L 3.765625 -0.375 L 3.75 0 L 1.53125 0 L 1.5 -0.375 L 2.171875 -0.515625 C 2.179688 -0.523438 2.1875 -0.554688 2.1875 -0.609375 C 2.195312 -0.660156 2.203125 -0.738281 2.203125 -0.84375 C 2.210938 -0.945312 2.21875 -1.082031 2.21875 -1.25 C 2.226562 -1.414062 2.234375 -1.617188 2.234375 -1.859375 L 2.234375 -2.796875 L 2.421875 -2.125 L 0.484375 -5.21875 L 0 -5.359375 L 0.015625 -5.734375 L 2.046875 -5.734375 L 2.078125 -5.359375 L 1.46875 -5.21875 L 2.90625 -2.921875 L 2.78125 -2.921875 L 4.15625 -5.21875 L 3.46875 -5.359375 L 3.5 -5.734375 L 5.28125 -5.734375 L 5.296875 -5.359375 Z M 4.8125 -5.21875 "/></g></g></g><g fill="#3d3b3a" fill-opacity="1"><g transform="translate(203.559512, 139.044132)"><g><path d="M 0.546875 -5.734375 L 2.234375 -5.734375 L 4.28125 -1.0625 L 4.109375 -1.0625 L 6.125 -5.734375 L 7.703125 -5.734375 L 7.734375 -5.359375 L 7.125 -5.234375 C 7.125 -5.140625 7.125 -4.96875 7.125 -4.71875 C 7.125 -4.46875 7.128906 -4.203125 7.140625 -3.921875 L 7.171875 -2.125 C 7.179688 -1.800781 7.1875 -1.53125 7.1875 -1.3125 C 7.195312 -1.09375 7.207031 -0.921875 7.21875 -0.796875 C 7.226562 -0.671875 7.234375 -0.570312 7.234375 -0.5 L 7.828125 -0.375 L 7.8125 0 L 5.75 0 L 5.71875 -0.375 L 6.3125 -0.5 C 6.3125 -0.570312 6.3125 -0.660156 6.3125 -0.765625 C 6.3125 -0.867188 6.3125 -1.015625 6.3125 -1.203125 C 6.3125 -1.398438 6.3125 -1.660156 6.3125 -1.984375 L 6.296875 -5.453125 L 6.546875 -5.453125 L 4.1875 0.03125 L 3.84375 0.03125 L 1.421875 -5.453125 L 1.671875 -5.453125 L 1.6875 -2.140625 C 1.6875 -1.597656 1.6875 -1.203125 1.6875 -0.953125 C 1.6875 -0.710938 1.691406 -0.566406 1.703125 -0.515625 L 2.359375 -0.375 L 2.328125 0 L 0.421875 0 L 0.390625 -0.375 L 1.0625 -0.515625 C 1.0625 -0.554688 1.0625 -0.640625 1.0625 -0.765625 C 1.070312 -0.890625 1.078125 -1.050781 1.078125 -1.25 C 1.085938 -1.457031 1.09375 -1.703125 1.09375 -1.984375 L 1.125 -3.921875 C 1.132812 -4.203125 1.132812 -4.460938 1.125 -4.703125 C 1.125 -4.941406 1.125 -5.113281 1.125 -5.21875 L 0.53125 -5.359375 Z M 0.546875 -5.734375 "/></g></g></g><path stroke-linecap="butt" transform="matrix(0, 0.75, -0.75, 0, 270.938658, 228.490137)" fill="none" stroke-linejoin="miter" d="M -0.00247433 1.001544 L 46.007945 1.001544 " stroke="#3d3b3a" stroke-width="2" stroke-opacity="1" stroke-miterlimit="4"/><path stroke-linecap="butt" transform="matrix(0.749998, -0.00187434, 0.00187434, 0.749998, 119.38792, 262.618401)" fill="none" stroke-linejoin="miter" d="M 0.00111176 0.998388 L 200.069461 0.998383 " stroke="#3d3b3a" stroke-width="2" stroke-opacity="1" stroke-miterlimit="4"/></svg>